<?xml version="1.0" encoding="UTF-8"?>
<svg width="62px" height="24px" viewBox="0 0 62 24" version="1.1" xmlns="http://www.w3.org/2000/svg" xmlns:xlink="http://www.w3.org/1999/xlink">
    <title>8影响链接</title>
    <g id="页面-1" stroke="none" stroke-width="1" fill="none" fill-rule="evenodd">
        <g id="opm图标" transform="translate(-1501.000000, -281.000000)">
            <g id="8影响链接" transform="translate(1501.000000, 281.000000)">
                <rect id="矩形" x="0" y="0" width="62" height="24"></rect>
                <line x1="11.8158427" y1="16.504355" x2="50.1147224" y2="8.57426867" id="路径" stroke="#999999" stroke-width="1.5"></line>
                <path d="M2.7731401,12.7388855 L14.2973729,17.7266003 L3.38606084,21.9523549 L4.10845102,20.3223426 C4.44119681,19.57153 4.70341692,18.6977933 4.72447996,17.8989805 L4.6319842,16.6561094 C4.50400591,15.9320259 4.24659082,15.2272595 3.8618362,14.5774832 L2.7731401,12.7388855 Z M4.64718246,14.2879543 L4.69728969,14.3753859 C5.65904266,16.1407227 5.7295757,18.306798 5.05100661,20.1907675 L4.98195726,20.3698586 L12.230943,17.7205774 L4.64718246,14.2879543 Z" id="形状结合" fill="#979797" fill-rule="nonzero" transform="translate(8.535256, 17.345620) scale(-1, 1) rotate(10.000000) translate(-8.535256, -17.345620) "></path>
                <path d="M47.927818,3.09734316 L59.4520508,8.08505794 L48.5407387,12.3108125 L49.2631289,10.6808002 C49.5958747,9.92998756 49.8580948,9.05625095 49.8791578,8.25743811 L49.7866621,7.01456698 C49.6586838,6.29048349 49.4012687,5.58571708 49.0165141,4.93594084 L47.927818,3.09734316 Z M49.8018604,4.64641187 L49.8519676,4.73384351 C50.8137205,6.49918027 50.8842536,8.66525558 50.2056845,10.5492251 L50.1366351,10.7283162 L57.3856209,8.079035 L49.8018604,4.64641187 Z" id="形状结合" fill="#979797" fill-rule="nonzero" transform="translate(53.689934, 7.704078) rotate(-13.000000) translate(-53.689934, -7.704078) "></path>
            </g>
        </g>
    </g>
</svg>