<?xml version="1.0" encoding="UTF-8"?>
<svg width="60px" height="28px" viewBox="0 0 60 28" version="1.1" xmlns="http://www.w3.org/2000/svg" xmlns:xlink="http://www.w3.org/1999/xlink">
    <title>10优化箭头方向</title>
    <g id="页面-1" stroke="none" stroke-width="1" fill="none" fill-rule="evenodd">
        <g id="opm图标" transform="translate(-1479.000000, -424.000000)">
            <g id="10优化箭头方向" transform="translate(1479.000000, 424.000000)">
                <rect id="矩形" x="0" y="0" width="60" height="28"></rect>
                <path d="M40.6085691,4 L55.0698728,5.68127441 L43.212573,14.7286377 C43.5493978,13.6098873 43.7682327,12.7983019 43.8690775,12.2938817 C44.1866123,10.7055908 43.9760743,9.63113626 43.9810102,9.44394251 L26.1593503,14.0756836 L33.5427252,18.705213 L6.28923316,24.7941895 L6,23.3223389 L29.5072507,17.9150391 L22.6857175,13.5984556 L43.7112302,7.95178223 C43.6801092,7.77570396 43.5406814,7.07525672 42.639575,5.86962891 C42.3581442,5.49309095 41.6811422,4.86988131 40.6085691,4 Z M43.4532957,5.36962891 C44.3585928,6.65564063 44.873157,7.70153907 44.9969881,8.50732422 C45.1208192,9.31310937 45.1208192,10.4691152 44.9969881,11.9753418 L52.3938474,6.2824707 L43.4532957,5.36962891 Z" id="形状结合" fill="#979797" fill-rule="nonzero"></path>
            </g>
        </g>
    </g>
</svg>