<?xml version="1.0" encoding="UTF-8"?>
<svg width="60px" height="24px" viewBox="0 0 60 24" version="1.1" xmlns="http://www.w3.org/2000/svg" xmlns:xlink="http://www.w3.org/1999/xlink">
    <title>9非消耗链接</title>
    <g id="页面-1" stroke="none" stroke-width="1" fill="none" fill-rule="evenodd">
        <g id="opm图标" transform="translate(-1483.000000, -360.000000)">
            <g id="9非消耗链接" transform="translate(1483.000000, 360.000000)">
                <rect id="矩形" x="0" y="0" width="60" height="24"></rect>
                <line x1="4" y1="18.2705759" x2="48.55" y2="8.79057591" id="路径" stroke="#999999" stroke-width="1.5"></line>
                <path d="M46,3.79057591 L58,8.0913564 L46.6995852,12.9280634 L47.4219754,11.2980512 C47.7547212,10.5472385 47.9302768,9.7494837 47.9513399,8.95067086 L47.8588441,7.70779973 C47.7308658,6.98371624 47.4734507,6.27894983 47.0886961,5.62917359 L46,3.79057591 Z M47.8740424,5.33964462 L47.9241496,5.42707626 C48.8859026,7.19241302 49.0431001,9.28250651 48.364531,11.166476 L48.2954816,11.3455672 L55.7409084,8.15915586 L47.8740424,5.33964462 Z" id="形状结合" fill="#979797" fill-rule="nonzero" transform="translate(52.000000, 8.359320) rotate(-8.000000) translate(-52.000000, -8.359320) "></path>
                <path d="M47.5334153,9.31608737 L47.5334153,9.81608737 L39.5334153,9.81608737 L39.5334153,9.31608737 L47.5334153,9.31608737 Z" id="矩形" stroke="#979797" fill="#D8D8D8" transform="translate(43.533415, 9.566087) rotate(75.000000) translate(-43.533415, -9.566087) "></path>
            </g>
        </g>
    </g>
</svg>