<?xml version="1.0" encoding="UTF-8"?>
<svg width="61px" height="58px" viewBox="0 0 61 58" version="1.1" xmlns="http://www.w3.org/2000/svg" xmlns:xlink="http://www.w3.org/1999/xlink">
    <title>路径</title>
    <g id="页面-1" stroke="none" stroke-width="1" fill="none" fill-rule="evenodd">
        <g id="画板" transform="translate(-30.000000, -34.000000)" fill="#FFFFFF" fill-rule="nonzero">
            <path d="M77.1426359,54.214193 C76.8447561,54.5134809 76.773265,54.9743844 76.9758232,55.3455015 C78.0184022,57.2549588 78.608204,59.4457468 78.608204,61.7742073 C78.608204,65.1382042 77.374982,68.2148846 75.3374848,70.5732739 C75.0693931,70.8785476 75.0336475,71.3274796 75.2302481,71.6746536 L77.565625,75.7389844 C77.7622256,76.0801727 78.1375541,76.2597454 78.5247977,76.2058736 C78.8822534,76.1579875 79.2456666,76.1340445 79.6150375,76.1340445 C83.791311,76.1639733 87.240758,79.7075429 87.1871397,83.8975746 C87.1335214,88.0696491 83.7674806,91.4336459 79.6150375,91.4637681 C75.3911032,91.4935035 71.9356985,88.045706 71.9356985,83.8018025 C71.9356985,81.5212281 72.9306167,79.4740983 74.5034216,78.0674448 L72.2991118,74.2365587 C72.0488928,73.7995983 71.5067517,73.6379827 71.0539746,73.8534701 C69.3083995,74.703448 67.3423934,75.1823087 65.263193,75.1823087 C63.6725153,75.1823087 62.1473712,74.900978 60.7354214,74.3921885 C60.300517,74.2365587 59.8179519,74.4101457 59.5856057,74.8111916 L58.1021647,77.391054 C57.9174793,77.714285 57.9353521,78.1153309 58.1498255,78.4206046 C59.0434646,79.6895857 59.5617753,81.2398974 59.5498601,82.9159101 C59.508157,87.076013 56.1242435,90.4699386 51.9837155,90.5058532 C47.718078,90.5417678 44.2507582,87.0520699 44.2924613,82.7602803 C44.3401221,78.5882059 47.747866,75.1882945 51.9062667,75.1823087 C52.6211781,75.1823087 53.3182166,75.2780809 53.9795095,75.4636394 C54.3965411,75.5833546 54.8433607,75.3977961 55.0637917,75.0206932 L56.3565896,72.7700476 C56.5770206,72.386959 56.5055295,71.8961267 56.1838194,71.5968387 C54.1820677,69.7292818 52.7582027,67.2511773 52.1922313,64.4618133 C52.1028674,64.0128814 51.7156237,63.6896504 51.256889,63.6896504 L45.7759023,63.6896504 C45.3648283,63.6896504 44.9954575,63.9590095 44.870348,64.3540697 C43.8694721,67.4127928 41.0038693,69.6155523 37.6259134,69.6155523 C33.3960215,69.6155523 29.9704048,66.1557833 30,61.8999082 C30.0240232,57.673962 33.491343,54.2501075 37.6974045,54.2920078 C40.9264206,54.3219366 43.6788291,56.3750522 44.7571537,59.2482168 C44.8941784,59.6193339 45.251634,59.8587642 45.6448352,59.8587642 L51.2509314,59.8587642 C51.7037085,59.8587642 52.0969098,59.541519 52.1862737,59.0985728 C52.841609,55.8542911 54.6586753,53.0349983 57.1906528,51.101598 C57.5719388,50.8082958 57.6791755,50.2755632 57.4408718,49.85656 L57.3098047,49.6291011 C57.1012889,49.2699556 56.6961725,49.0903828 56.2910561,49.1681977 C55.7667878,49.2759413 55.2186891,49.3298132 54.6586753,49.3178416 C50.5181473,49.257984 47.0984882,45.7204001 47.1521066,41.5602972 C47.2057249,37.3523083 50.6313416,33.9643684 54.8374031,34 C58.9660159,34.0361975 62.3439718,37.4121659 62.4035478,41.5543115 C62.4273781,43.4458115 61.7720428,45.1876675 60.6579727,46.5344634 C60.4017961,46.8457229 60.3600929,47.2826834 60.5626511,47.6298574 L60.9558524,48.312234 C61.1703258,48.6833511 61.5992725,48.8689097 62.0103465,48.761166 C63.0529255,48.4977926 64.1431653,48.3601201 65.263193,48.3601201 C68.3790148,48.3601201 71.2446176,49.4315711 73.5204186,51.2332847 C73.9017046,51.5325727 74.4438457,51.5026439 74.7834285,51.1614556 L76.2251663,49.7129018 C76.5051733,49.4315711 76.582622,49.0065821 76.4217669,48.6474366 C75.9868626,47.6837293 75.7485588,46.6122783 75.7485588,45.4869555 C75.7485588,41.2550235 79.1622603,37.8251833 83.3742794,37.8251833 C87.5803409,37.8251833 91,41.2610093 91,45.4869555 C91,49.7188875 87.5862985,53.1487278 83.3742794,53.1487278 C82.1410574,53.1487278 80.9793265,52.8554255 79.9486627,52.3346645 C79.5792919,52.1491059 79.1324723,52.2149493 78.8345926,52.5082515 L77.1426359,54.214193 L77.1426359,54.214193 Z" id="路径" transform="translate(60.500000, 62.731884) scale(-1, 1) translate(-60.500000, -62.731884) "></path>
        </g>
    </g>
</svg>