<?xml version="1.0" encoding="UTF-8"?>
<svg width="34px" height="34px" viewBox="0 0 34 34" version="1.1" xmlns="http://www.w3.org/2000/svg" xmlns:xlink="http://www.w3.org/1999/xlink">
    <title>蓝色</title>
    <defs>
        <rect id="path-1" x="0" y="0" width="30.7844367" height="30.5891461" rx="2"></rect>
        <path d="M0,8.04790919 L6.27213377,3.0920503 C8.62619027,1.23201793 11.8869071,1.02668612 14.4557002,2.57671989 L30.7844367,12.4296324 L30.7844367,12.4296324 L30.7844367,21.3424822 C30.7844367,22.4470517 29.8890062,23.3424822 28.7844367,23.3424822 L2,23.3424822 C0.8954305,23.3424822 -5.30863065e-16,22.4470517 0,21.3424822 L0,8.04790919 L0,8.04790919 Z" id="path-3"></path>
        <linearGradient x1="50%" y1="0%" x2="50%" y2="99.0493881%" id="linearGradient-5">
            <stop stop-color="#B8FFB9" offset="0%"></stop>
            <stop stop-color="#70FF99" offset="44.3072552%"></stop>
            <stop stop-color="#B8FFB9" offset="100%"></stop>
        </linearGradient>
    </defs>
    <g id="页面-1" stroke="none" stroke-width="1" fill="none" fill-rule="evenodd">
        <g id="蓝色" transform="translate(0.000000, -0.000000)">
            <g id="星形">
                <mask id="mask-2" fill="white">
                    <use xlink:href="#path-1"></use>
                </mask>
                <use id="蒙版" fill="#DFF2FF" xlink:href="#path-1"></use>
            </g>
            <g id="星形" transform="translate(0.000000, 7.246664)">
                <mask id="mask-4" fill="white">
                    <use xlink:href="#path-3"></use>
                </mask>
                <use id="蒙版" fill="#21AAE7" xlink:href="#path-3"></use>
                <path d="M12.8937983,21.4334442 L11.4507638,22.0638956 C11.0350733,22.2455077 10.5508639,22.0557498 10.3692517,21.6400593 C10.2776539,21.430402 10.2776539,21.1920408 10.3692517,20.9823835 L10.9997031,19.539349 C11.1327987,19.2347075 11.1335507,18.888503 11.0017797,18.5832863 L10.3814576,17.1464549 C10.2001947,16.7266018 10.3936104,16.239301 10.8134635,16.0580381 C11.0229236,15.967608 11.2604143,15.967608 11.4698744,16.0580381 L12.9067058,16.6783602 C13.2119226,16.8101312 13.558127,16.8093792 13.8627685,16.6762835 L15.305803,16.0458322 C15.7214935,15.86422 16.2057029,16.053978 16.3873151,16.4696684 C16.4789129,16.6793258 16.4789129,16.9176869 16.3873151,17.1273443 L15.7568637,18.5703788 C15.623768,18.8750202 15.6230161,19.2212247 15.7547871,19.5264415 L16.3751092,20.9632729 C16.556372,21.383126 16.3629564,21.8704268 15.9431033,22.0516897 C15.7336432,22.1421197 15.4961525,22.1421197 15.2866924,22.0516897 L13.849861,21.4313676 C13.5446442,21.2995966 13.1984397,21.3003485 12.8937983,21.4334442 Z" fill="#FFFFFF" mask="url(#mask-4)" transform="translate(13.378283, 19.054864) rotate(45.000000) translate(-13.378283, -19.054864) "></path>
            </g>
            <ellipse id="椭圆形" fill="#21AAE7" cx="23.5918113" cy="6.00347727" rx="3.30860768" ry="3.2876185"></ellipse>
            <g id="编组-4" transform="translate(24.095295, 23.442149) rotate(45.000000) translate(-24.095295, -23.442149) translate(12.946726, 20.583351)">
                <path d="M1.88941044,0 L20.4077283,0 C21.0373277,0.000142038345 21.608317,0.369506003 21.8667365,0.943626914 C22.1536713,1.58201751 22.2971387,2.2204081 22.2971387,2.8587987 C22.2971387,3.49718929 22.1536713,4.13557989 21.8667365,4.77397048 C21.608317,5.34809139 21.0373277,5.71745536 20.4077283,5.7175974 L1.88941044,5.7175974 C1.25981105,5.71745536 0.6888217,5.34809139 0.430402214,4.77397048 C0.143467405,4.13557989 0,3.49718929 0,2.8587987 C0,2.2204081 0.143467405,1.58201751 0.430402214,0.943626914 C0.6888217,0.369506003 1.25981105,0.000142038345 1.88941044,0 Z" id="矩形" fill="url(#linearGradient-5)"></path>
                <path d="M1.89135772,0 L8.05728573,0 L8.05728573,0 L8.05728573,5.7175974 L1.89135772,5.7175974 C1.26105293,5.71822156 0.689111164,5.34873498 0.430402214,4.77397048 C0.143467405,4.13557989 0,3.49718929 0,2.8587987 C0,2.2204081 0.143467405,1.58201751 0.430402214,0.943626914 C0.689111164,0.368862413 1.26105293,-0.000624167498 1.89135772,0 Z" id="矩形" fill="#FFFFFF"></path>
            </g>
        </g>
    </g>
</svg>